<svg xmlns="http://www.w3.org/2000/svg" enable-background="new 0 0 1000 1000" viewBox="0 0 1000 1000"><rect width="1000" height="1000" fill="#e2e2e2"/><path fill="#ecf9ff" d="M252.826,330.065c-2.873,0-5.576,0.729-7.934,2.011
	c-4.959-8.209-13.966-13.699-24.257-13.699c-5.043,0-9.774,1.324-13.876,3.635c-7.889-11.541-21.15-19.118-36.184-19.118
	c-24.192,0-43.804,19.612-43.804,43.804h65.543h22.064h21.814h12.762h20.502C269.459,337.512,262.012,330.065,252.826,330.065z"/><polygon fill="#fff" points="785.915 388.758 727.915 388.758 710.797 292.758 763.907 292.758"/><polygon fill="#f5a623" points="727.915 388.758 669.915 388.758 657.688 292.758 710.797 292.758"/><polygon fill="#fff" points="669.915 388.758 611.915 388.758 604.579 292.758 657.688 292.758"/><polygon fill="#f5a623" points="611.915 388.758 553.915 388.758 551.469 292.758 604.579 292.758"/><polygon fill="#fff" points="553.915 388.758 495.915 388.758 498.36 292.758 551.469 292.758"/><polygon fill="#f5a623" points="495.915 388.758 437.915 388.758 445.251 292.758 498.36 292.758"/><polygon fill="#fff" points="437.915 388.758 379.915 388.758 392.141 292.758 445.251 292.758"/><polygon fill="#f5a623" points="379.915 388.758 321.915 388.758 339.032 292.758 392.141 292.758"/><polygon fill="#fff" points="321.915 388.758 263.915 388.758 285.923 292.758 339.032 292.758"/><rect width="169" height="236" x="285.915" y="425.242" fill="#f5969c"/><rect width="116" height="6.072" x="312.415" y="613.208" fill="#282828" stroke="#282828" stroke-linecap="round" stroke-linejoin="round" stroke-miterlimit="10" stroke-width="6" opacity=".18"/><rect width="25.336" height="11.713" x="421.496" y="484.279" fill="#df747c"/><rect width="16.917" height="11.713" x="285.915" y="463.946" fill="#df747c"/><rect width="18" height="11.713" x="438.831" y="498.992" fill="#df747c"/><rect width="12.668" height="11.713" x="440.499" y="623.279" fill="#df747c"/><rect width="25.336" height="11.713" x="330.496" y="623.279" fill="#df747c"/><rect width="25.336" height="11.713" x="316.496" y="637.992" fill="#df747c"/><rect width="170" height="236" x="285.915" y="425.242" fill="none" stroke="#2d255e" stroke-linecap="round" stroke-linejoin="round" stroke-miterlimit="10" stroke-width="6"/><rect width="104" height="172" x="318.415" y="433.208" fill="#66cdfd"/><path fill="#3297d9" d="M385.42,595.448h-38.35c-1.516,0-2.744-1.229-2.744-2.744v-1.217
	c0-1.516,1.229-2.744,2.744-2.744h38.35c1.516,0,2.744,1.229,2.744,2.744v1.217C388.165,594.219,386.936,595.448,385.42,595.448z"/><rect width="16.333" height="11.761" x="358.165" y="594.231" fill="#3297d9"/><path fill="#3297d9" d="M403.394 606.28h-8v-37.788c0-2.209 1.791-4 4-4l0 0c2.209 0 4 1.791 4 4V606.28zM338.331 606.28h-8v-37.788c0-2.209 1.791-4 4-4l0 0c2.209 0 4 1.791 4 4V606.28z"/><polygon fill="#fff" points="418.637 605.208 422.415 599.812 422.415 527.315 367.873 605.208" opacity=".3"/><polygon fill="#fff" points="361.039 605.208 422.415 517.554 422.415 501.176 349.571 605.208" opacity=".3"/><polygon fill="#fff" points="340.62 605.208 422.415 488.392 422.415 480.203 334.886 605.208" opacity=".3"/><rect width="104" height="172" x="318.415" y="433.208" fill="none" stroke="#2d255e" stroke-linecap="round" stroke-linejoin="round" stroke-miterlimit="10" stroke-width="6"/><rect width="116" height="12" x="312.415" y="605.208" fill="#d49d7f"/><rect width="116" height="12" x="312.415" y="605.208" fill="none" stroke="#2d255e" stroke-linecap="round" stroke-linejoin="round" stroke-miterlimit="10" stroke-width="6"/><rect width="292.584" height="138" x="378.623" y="505.951" fill="#d49d7f" transform="rotate(90 524.915 574.95)"/><rect width="292.584" height="138" x="378.623" y="505.951" fill="none" stroke="#2d255e" stroke-linecap="round" stroke-linejoin="round" stroke-miterlimit="10" stroke-width="6" transform="rotate(90 524.915 574.95)"/><rect width="108" height="202.667" x="470.915" y="444.992" fill="#66cdfd"/><polygon fill="#fff" points="579.915 648.659 579.915 552.298 524.281 648.659" opacity=".3"/><polygon fill="#fff" points="517.713 647.659 578.915 541.655 578.915 508.538 498.593 647.659" opacity=".3"/><polygon fill="#fff" points="489.668 647.659 578.915 493.078 578.915 482.33 483.462 647.659" opacity=".3"/><rect width="108" height="202.667" x="470.915" y="444.992" fill="none" stroke="#2d255e" stroke-linecap="round" stroke-linejoin="round" stroke-miterlimit="10" stroke-width="6"/><rect width="196.75" height="60" x="266.915" y="661.242" fill="#db6b7b"/><rect width="8.419" height="60" x="266.915" y="661.242" fill="#ce5569"/><rect width="4.873" height="60" x="457" y="661.242" fill="#ce5569"/><rect width="196.75" height="60" x="266.915" y="661.242" fill="none" stroke="#2d255e" stroke-linecap="round" stroke-linejoin="round" stroke-miterlimit="10" stroke-width="6"/><rect width="169" height="236" x="594.332" y="425.242" fill="#f5969c" transform="rotate(-180 678.832 543.242)"/><rect width="25.336" height="11.713" x="724.164" y="637.992" fill="#df747c"/><rect width="25.336" height="11.713" x="594.332" y="637.992" fill="#df747c"/><rect width="25.336" height="11.713" x="708.996" y="623.279" fill="#df747c"/><rect width="15.5" height="11.713" x="611.917" y="458.758" fill="#df747c"/><rect width="15.5" height="11.713" x="593.331" y="572.242" fill="#df747c"/><rect width="170" height="236" x="593.331" y="425.242" fill="none" stroke="#2d255e" stroke-linecap="round" stroke-linejoin="round" stroke-miterlimit="10" stroke-width="6" transform="rotate(-180 678.332 543.242)"/><rect width="104" height="172" x="626.832" y="433.208" fill="#66cdfd"/><path fill="#3297d9" d="M663.826,595.448h38.35c1.516,0,2.744-1.229,2.744-2.744v-1.217
	c0-1.516-1.229-2.744-2.744-2.744h-38.35c-1.516,0-2.744,1.229-2.744,2.744v1.217C661.082,594.219,662.31,595.448,663.826,595.448z"/><rect width="16.333" height="11.761" x="674.748" y="594.231" fill="#3297d9" transform="rotate(-180 682.915 600.111)"/><path fill="#3297d9" d="M645.852 606.28h8v-37.788c0-2.209-1.791-4-4-4l0 0c-2.209 0-4 1.791-4 4V606.28zM710.915 606.28h8v-37.788c0-2.209-1.791-4-4-4l0 0c-2.209 0-4 1.791-4 4V606.28z"/><polygon fill="#fff" points="727.054 605.208 730.832 599.812 730.832 527.315 676.29 605.208" opacity=".3"/><polygon fill="#fff" points="669.456 605.208 730.832 517.554 730.832 501.176 657.988 605.208" opacity=".3"/><polygon fill="#fff" points="649.036 605.208 730.832 488.392 730.832 480.203 643.302 605.208" opacity=".3"/><rect width="104" height="172" x="626.832" y="433.208" fill="none" stroke="#2d255e" stroke-linecap="round" stroke-linejoin="round" stroke-miterlimit="10" stroke-width="6"/><rect width="116" height="6.072" x="620.832" y="613.208" fill="#282828" stroke="#282828" stroke-linecap="round" stroke-linejoin="round" stroke-miterlimit="10" stroke-width="6" opacity=".18"/><rect width="116" height="12" x="620.832" y="605.208" fill="#d49d7f" transform="rotate(-180 678.832 611.208)"/><rect width="116" height="12" x="620.832" y="605.208" fill="none" stroke="#2d255e" stroke-linecap="round" stroke-linejoin="round" stroke-miterlimit="10" stroke-width="6" transform="rotate(-180 678.832 611.208)"/><rect width="195.167" height="60" x="587.165" y="661.242" fill="#db6b7b" transform="rotate(-180 684.748 691.242)"/><rect width="7.167" height="60" x="587.165" y="661.242" fill="#ce5569"/><rect width="195.167" height="60" x="587.165" y="661.242" fill="none" stroke="#2d255e" stroke-linecap="round" stroke-linejoin="round" stroke-miterlimit="10" stroke-width="6" transform="rotate(-180 684.748 691.242)"/><path fill="#2d255e" d="M490.331,586.992L490.331,586.992c-2.485,0-4.5-2.015-4.5-4.5v-48.333
	c0-2.485,2.015-4.5,4.5-4.5l0,0c2.485,0,4.5,2.015,4.5,4.5v48.333C494.831,584.977,492.817,586.992,490.331,586.992z"/><path fill="#282828" stroke="#282828" stroke-linecap="round" stroke-linejoin="round" stroke-miterlimit="10" stroke-width="6" d="
	M727.915,394.758h-58h-58h-58h-58h-58h-58h-58h-36v61.144c2.242,0.556,4.586,0.856,7,0.856h0c16.016,0,29-12.984,29-29
	c0,16.016,12.984,29,29,29h0c16.016,0,29-12.984,29-29c0,16.016,12.984,29,29,29h0c16.016,0,29-12.984,29-29
	c0,16.016,12.984,29,29,29h0c16.016,0,29-12.984,29-29c0,16.016,12.984,29,29,29h0c16.016,0,29-12.984,29-29
	c0,16.016,12.984,29,29,29h0c16.016,0,29-12.984,29-29c0,16.016,12.984,29,29,29h0c16.016,0,29-12.984,29-29
	c0,16.016,12.984,29,29,29h0c16.016,0,29-12.984,29-29c0,16.016,12.984,29,29,29h0c2.206,0,4.352-0.255,6.417-0.721v-61.279H727.915
	z" opacity=".18"/><path fill="#d68821" d="M698.915,450.758L698.915,450.758c-16.016,0-29-12.984-29-29v-33h58v33
		C727.915,437.774,714.931,450.758,698.915,450.758z"/><path fill="#d6d6d6" d="M640.915,450.758L640.915,450.758c-16.016,0-29-12.984-29-29v-33h58v33
		C669.915,437.774,656.931,450.758,640.915,450.758z"/><path fill="#d68821" d="M582.915,450.758L582.915,450.758c-16.016,0-29-12.984-29-29v-33h58v33
		C611.915,437.774,598.931,450.758,582.915,450.758z"/><path fill="#d6d6d6" d="M524.915,450.758L524.915,450.758c-16.016,0-29-12.984-29-29v-33h58v33
		C553.915,437.774,540.931,450.758,524.915,450.758z"/><path fill="#d68821" d="M466.915,450.758L466.915,450.758c-16.016,0-29-12.984-29-29v-33h58v33
		C495.915,437.774,482.931,450.758,466.915,450.758z"/><path fill="#d6d6d6" d="M408.915,450.758L408.915,450.758c-16.016,0-29-12.984-29-29v-33h58v33
		C437.915,437.774,424.931,450.758,408.915,450.758z"/><path fill="#d68821" d="M350.915,450.758L350.915,450.758c-16.016,0-29-12.984-29-29v-33h58v33
		C379.915,437.774,366.931,450.758,350.915,450.758z"/><path fill="#d6d6d6" d="M292.915,450.758L292.915,450.758c-16.016,0-29-12.984-29-29v-33h58v33
		C321.915,437.774,308.931,450.758,292.915,450.758z"/><path fill="none" stroke="#2d255e" stroke-linecap="round" stroke-linejoin="round" stroke-miterlimit="10" stroke-width="6" d="M698.915 450.758L698.915 450.758c-16.016 0-29-12.984-29-29v-33h58v33C727.915 437.774 714.931 450.758 698.915 450.758zM640.915 450.758L640.915 450.758c-16.016 0-29-12.984-29-29v-33h58v33C669.915 437.774 656.931 450.758 640.915 450.758zM582.915 450.758L582.915 450.758c-16.016 0-29-12.984-29-29v-33h58v33C611.915 437.774 598.931 450.758 582.915 450.758zM524.915 450.758L524.915 450.758c-16.016 0-29-12.984-29-29v-33h58v33C553.915 437.774 540.931 450.758 524.915 450.758z"/><path fill="none" stroke="#2d255e" stroke-linecap="round" stroke-linejoin="round" stroke-miterlimit="10" stroke-width="6" d="M466.915 450.758L466.915 450.758c-16.016 0-29-12.984-29-29v-33h58v33C495.915 437.774 482.931 450.758 466.915 450.758zM408.915 450.758L408.915 450.758c-16.016 0-29-12.984-29-29v-33h58v33C437.915 437.774 424.931 450.758 408.915 450.758zM350.915 450.758L350.915 450.758c-16.016 0-29-12.984-29-29v-33h58v33C379.915 437.774 366.931 450.758 350.915 450.758zM292.915 450.758L292.915 450.758c-16.016 0-29-12.984-29-29v-33h58v33C321.915 437.774 308.931 450.758 292.915 450.758z"/><polygon fill="none" stroke="#2d255e" stroke-linecap="round" stroke-linejoin="round" stroke-miterlimit="10" stroke-width="6" points="785.915 388.758 727.915 388.758 710.797 292.758 763.907 292.758"/><polygon fill="none" stroke="#2d255e" stroke-linecap="round" stroke-linejoin="round" stroke-miterlimit="10" stroke-width="6" points="727.915 388.758 669.915 388.758 657.688 292.758 710.797 292.758"/><polygon fill="none" stroke="#2d255e" stroke-linecap="round" stroke-linejoin="round" stroke-miterlimit="10" stroke-width="6" points="669.915 388.758 611.915 388.758 604.579 292.758 657.688 292.758"/><polygon fill="none" stroke="#2d255e" stroke-linecap="round" stroke-linejoin="round" stroke-miterlimit="10" stroke-width="6" points="611.915 388.758 553.915 388.758 551.469 292.758 604.579 292.758"/><polygon fill="none" stroke="#2d255e" stroke-linecap="round" stroke-linejoin="round" stroke-miterlimit="10" stroke-width="6" points="553.915 388.758 495.915 388.758 498.36 292.758 551.469 292.758"/><polygon fill="none" stroke="#2d255e" stroke-linecap="round" stroke-linejoin="round" stroke-miterlimit="10" stroke-width="6" points="495.915 388.758 437.915 388.758 445.251 292.758 498.36 292.758"/><polygon fill="none" stroke="#2d255e" stroke-linecap="round" stroke-linejoin="round" stroke-miterlimit="10" stroke-width="6" points="437.915 388.758 379.915 388.758 392.141 292.758 445.251 292.758"/><polygon fill="none" stroke="#2d255e" stroke-linecap="round" stroke-linejoin="round" stroke-miterlimit="10" stroke-width="6" points="379.915 388.758 321.915 388.758 339.032 292.758 392.141 292.758"/><polygon fill="none" stroke="#2d255e" stroke-linecap="round" stroke-linejoin="round" stroke-miterlimit="10" stroke-width="6" points="321.915 388.758 263.915 388.758 285.923 292.758 339.032 292.758"/><rect width="478" height="18" x="285.915" y="274.758" fill="#db6b7b"/><rect width="478" height="6.234" x="285.915" y="274.758" fill="#f5969c"/><rect width="478" height="18" x="285.915" y="274.758" fill="none" stroke="#2d255e" stroke-linecap="round" stroke-linejoin="round" stroke-miterlimit="10" stroke-width="6"/><line x1="215.443" x2="215.443" y1="606.025" y2="663.011" fill="none" stroke="#2d255e" stroke-linecap="round" stroke-linejoin="round" stroke-miterlimit="10" stroke-width="6"/><path fill="#14a56a" d="M234.218,607.826h-6.008c-11.845,0-21.448-9.603-21.448-21.448v-49.224
	c0-11.845,9.603-21.448,21.448-21.448h6.008c11.845,0,21.448,9.603,21.448,21.448v49.224
	C255.666,598.223,246.063,607.826,234.218,607.826z"/><path fill="none" stroke="#2d255e" stroke-linecap="round" stroke-linejoin="round" stroke-miterlimit="10" stroke-width="6" d="
	M234.218,607.826h-6.008c-11.845,0-21.448-9.603-21.448-21.448v-49.224c0-11.845,9.603-21.448,21.448-21.448h6.008
	c11.845,0,21.448,9.603,21.448,21.448v49.224C255.666,598.223,246.063,607.826,234.218,607.826z"/><polyline fill="none" stroke="#2d255e" stroke-linecap="round" stroke-linejoin="round" stroke-miterlimit="10" stroke-width="6" points="199.191 625.864 202.159 641.073 215.443 646.126"/><path fill="#12b075" d="M192.864,628.422L192.864,628.422c-9.744,0-17.643-7.899-17.643-17.643v-26.144
	c0-9.744,7.899-17.643,17.643-17.643h0c9.744,0,17.643,7.899,17.643,17.643v26.144C210.507,620.523,202.608,628.422,192.864,628.422
	z"/><path fill="none" stroke="#2d255e" stroke-linecap="round" stroke-linejoin="round" stroke-miterlimit="10" stroke-width="6" d="
	M192.864,628.422L192.864,628.422c-9.744,0-17.643-7.899-17.643-17.643v-26.144c0-9.744,7.899-17.643,17.643-17.643h0
	c9.744,0,17.643,7.899,17.643,17.643v26.144C210.507,620.523,202.608,628.422,192.864,628.422z"/><polygon fill="#69351f" points="238.175 719.574 192.71 719.574 186.58 660.056 244.306 660.056"/><polygon fill="#632d1b" points="226.978 660.056 220.848 719.574 238.176 719.574 244.306 660.056"/><rect width="21.593" height="8.26" x="220.581" y="672.492" fill="#562314"/><rect width="18.403" height="8.26" x="188.914" y="687.113" fill="#562314"/><rect width="25.343" height="8.26" x="214.412" y="700.113" fill="#562314"/><polygon fill="none" stroke="#2d255e" stroke-linecap="round" stroke-linejoin="round" stroke-miterlimit="10" stroke-width="6" points="238.175 719.574 192.71 719.574 186.58 660.056 244.306 660.056"/><polyline fill="none" stroke="#2d255e" stroke-linecap="round" stroke-linejoin="round" stroke-miterlimit="10" stroke-width="6" points="216.499 640.779 230.728 633.04 230.728 561.766"/><line x1="231.378" x2="242.174" y1="583.659" y2="574.992" fill="none" stroke="#2d255e" stroke-linecap="round" stroke-linejoin="round" stroke-miterlimit="10" stroke-width="6"/><rect width="54" height="25.333" x="504.404" y="514.952" fill="#e8e8e8" transform="rotate(-12 531.434 527.648)"/><rect width="54" height="25.333" x="504.404" y="514.952" fill="none" stroke="#2d255e" stroke-linecap="round" stroke-linejoin="round" stroke-miterlimit="10" stroke-width="3" transform="rotate(-12 531.434 527.648)"/><path fill="#d3d3d3" d="M514.17,526.511l32.527-6.914c1.282-0.273,2.542,0.546,2.815,1.828l0.954,4.487
	c0.272,1.282-0.546,2.542-1.828,2.815l-32.526,6.914c-1.282,0.273-2.542-0.546-2.815-1.828l-0.954-4.487
	C512.069,528.044,512.888,526.784,514.17,526.511z"/><polyline fill="none" stroke="#2d255e" stroke-linecap="round" stroke-linejoin="round" stroke-miterlimit="10" stroke-width="2" points="518.836 516.309 527.088 491.992 537.181 511.722"/><circle cx="527.088" cy="493.325" r="3" fill="#2d255e"/><rect width="25.336" height="11.713" x="344.831" y="637.992" fill="#df747c"/><line x1="218.748" x2="223.613" y1="553.242" y2="561.766" fill="none" stroke="#006837" stroke-linecap="round" stroke-linejoin="round" stroke-miterlimit="10" stroke-width="6" opacity=".38"/><line x1="222.832" x2="227.697" y1="534.281" y2="542.805" fill="none" stroke="#006837" stroke-linecap="round" stroke-linejoin="round" stroke-miterlimit="10" stroke-width="6" opacity=".38"/><line x1="234.343" x2="239.209" y1="532.686" y2="541.209" fill="none" stroke="#39d188" stroke-linecap="round" stroke-linejoin="round" stroke-miterlimit="10" stroke-width="6"/><line x1="189.612" x2="192.644" y1="601.273" y2="606.439" fill="none" stroke="#006837" stroke-linecap="round" stroke-linejoin="round" stroke-miterlimit="10" stroke-width="6" opacity=".38"/><line x1="191.348" x2="194.38" y1="587.2" y2="592.366" fill="none" stroke="#39d188" stroke-linecap="round" stroke-linejoin="round" stroke-miterlimit="10" stroke-width="6"/><path fill="#d6d6d6" d="M756.915,450.758L756.915,450.758c-16.016,0-29-12.984-29-29v-33h58v33
		C785.915,437.774,772.931,450.758,756.915,450.758z"/><path fill="none" stroke="#2d255e" stroke-linecap="round" stroke-linejoin="round" stroke-miterlimit="10" stroke-width="6" d="
		M756.915,450.758L756.915,450.758c-16.016,0-29-12.984-29-29v-33h58v33C785.915,437.774,772.931,450.758,756.915,450.758z"/><rect width="38" height="154.981" x="756.831" y="566.261" fill="#d6d6d6"/><rect width="19.333" height="154.981" x="765.165" y="566.261" fill="#fff"/><rect width="38" height="154.981" x="756.831" y="566.261" fill="none" stroke="#2d255e" stroke-linecap="round" stroke-linejoin="round" stroke-miterlimit="10" stroke-width="6"/><path fill="#2d255e" d="M777.863,587.159h-5.064c-2.652,0-4.801-2.15-4.801-4.801v-13.865h14.667v13.865
	C782.665,585.009,780.515,587.159,777.863,587.159z"/><line x1="142.847" x2="841" y1="721.242" y2="721.242" fill="none" stroke="#2d255e" stroke-linecap="round" stroke-linejoin="round" stroke-miterlimit="10" stroke-width="8"/><path fill="#ecf9ff" d="M850.334 232.295c-4.681 0-8.97 1.672-12.308 4.447-5.807-13.925-19.547-23.714-35.577-23.714-21.282 0-38.534 17.252-38.534 38.534h67.152 9.916 28.618C869.601 240.921 860.975 232.295 850.334 232.295zM572.828 213.028c-.225-14.682-12.19-26.517-26.926-26.517-4.789 0-9.282 1.255-13.179 3.446-4.244-7.125-11.679-12.126-20.336-13.026-2.893-11.758-13.501-20.481-26.152-20.481-3.451 0-6.748.656-9.78 1.839-9.447-15.196-26.285-25.318-45.494-25.318-25.301 0-46.487 17.555-52.081 41.145-3.987-1.757-8.392-2.74-13.029-2.74-17.863 0-32.344 14.481-32.344 32.344 0 3.236.481 6.359 1.366 9.307H572.828z"/></svg>